<svg width="128" height="36" viewBox="0 0 128 36" fill="none" xmlns="http://www.w3.org/2000/svg">
<path d="M7.624 22.14H20.944L20.548 17.496H8.056L7.624 22.14ZM14.212 11.052L17.776 19.224L17.56 20.772L20.584 27H27.496L14.212 0.215999L0.964 27H7.84L10.972 20.52L10.684 19.188L14.212 11.052ZM28.9847 28.188C29.1047 29.652 29.5007 30.936 30.1727 32.04C30.8447 33.168 31.8407 34.044 33.1607 34.668C34.5047 35.292 36.1967 35.604 38.2367 35.604C39.9407 35.604 41.4767 35.292 42.8447 34.668C44.2127 34.068 45.3047 33.108 46.1207 31.788C46.9607 30.468 47.3807 28.752 47.3807 26.64V10.44H42.1607V26.64C42.1607 27.648 41.9687 28.488 41.5847 29.16C41.2247 29.856 40.7327 30.372 40.1087 30.708C39.4847 31.068 38.7887 31.248 38.0207 31.248C37.3247 31.248 36.7007 31.128 36.1487 30.888C35.5967 30.672 35.1527 30.336 34.8167 29.88C34.5047 29.424 34.3127 28.86 34.2407 28.188H28.9847ZM28.6247 18.504C28.6247 20.352 28.9967 21.9 29.7407 23.148C30.5087 24.396 31.4927 25.344 32.6927 25.992C33.8927 26.616 35.1647 26.928 36.5087 26.928C37.9007 26.928 39.1247 26.604 40.1807 25.956C41.2607 25.284 42.1127 24.324 42.7367 23.076C43.3607 21.804 43.6727 20.28 43.6727 18.504C43.6727 16.704 43.3607 15.18 42.7367 13.932C42.1127 12.684 41.2607 11.736 40.1807 11.088C39.1247 10.416 37.9007 10.08 36.5087 10.08C35.1647 10.08 33.8927 10.392 32.6927 11.016C31.4927 11.64 30.5087 12.576 29.7407 13.824C28.9967 15.072 28.6247 16.632 28.6247 18.504ZM34.3487 18.504C34.3487 17.64 34.5287 16.908 34.8887 16.308C35.2487 15.708 35.7287 15.252 36.3287 14.94C36.9287 14.628 37.5887 14.472 38.3087 14.472C38.7647 14.472 39.2207 14.556 39.6767 14.724C40.1327 14.892 40.5407 15.144 40.9007 15.48C41.2847 15.816 41.5847 16.236 41.8007 16.74C42.0407 17.244 42.1607 17.832 42.1607 18.504C42.1607 19.392 41.9687 20.136 41.5847 20.736C41.2007 21.336 40.7087 21.792 40.1087 22.104C39.5327 22.392 38.9327 22.536 38.3087 22.536C37.5887 22.536 36.9287 22.38 36.3287 22.068C35.7287 21.756 35.2487 21.3 34.8887 20.7C34.5287 20.076 34.3487 19.344 34.3487 18.504ZM59.9933 27.36C62.1053 27.36 63.8933 26.952 65.3573 26.136C66.8453 25.32 68.0213 24.096 68.8853 22.464L64.0253 21.276C63.6173 21.996 63.0653 22.536 62.3693 22.896C61.6973 23.256 60.8813 23.436 59.9213 23.436C59.0813 23.436 58.3733 23.256 57.7973 22.896C57.2213 22.512 56.7893 21.96 56.5013 21.24C56.2133 20.52 56.0693 19.656 56.0693 18.648C56.0933 17.544 56.2373 16.632 56.5013 15.912C56.7893 15.168 57.2093 14.616 57.7613 14.256C58.3133 13.896 58.9973 13.716 59.8133 13.716C60.4613 13.716 61.0253 13.86 61.5053 14.148C61.9853 14.436 62.3573 14.844 62.6213 15.372C62.8853 15.9 63.0173 16.524 63.0173 17.244C63.0173 17.412 62.9693 17.628 62.8733 17.892C62.8013 18.132 62.7053 18.336 62.5853 18.504L63.8813 16.848H53.6573V19.872H68.7773C68.8253 19.704 68.8493 19.5 68.8493 19.26C68.8493 18.996 68.8493 18.732 68.8493 18.468C68.8493 16.692 68.5013 15.18 67.8053 13.932C67.1093 12.684 66.1013 11.736 64.7813 11.088C63.4613 10.416 61.8413 10.08 59.9213 10.08C58.0013 10.08 56.3333 10.428 54.9173 11.124C53.5253 11.82 52.4573 12.816 51.7133 14.112C50.9693 15.408 50.5973 16.944 50.5973 18.72C50.5973 20.472 50.9813 21.996 51.7493 23.292C52.5173 24.588 53.5973 25.596 54.9893 26.316C56.4053 27.012 58.0733 27.36 59.9933 27.36ZM82.97 16.92V27H88.622V16.344C88.622 14.352 88.154 12.804 87.218 11.7C86.282 10.596 84.782 10.044 82.718 10.044C81.494 10.044 80.462 10.296 79.622 10.8C78.806 11.304 78.158 12.012 77.678 12.924V10.44H72.206V27H77.678V16.92C77.678 16.272 77.798 15.72 78.038 15.264C78.278 14.808 78.614 14.46 79.046 14.22C79.478 13.98 79.982 13.86 80.558 13.86C81.422 13.86 82.034 14.124 82.394 14.652C82.778 15.18 82.97 15.936 82.97 16.92ZM97.4851 18.72C97.4851 17.904 97.6771 17.172 98.0611 16.524C98.4451 15.876 98.9731 15.36 99.6451 14.976C100.341 14.592 101.085 14.4 101.877 14.4C102.477 14.4 103.089 14.496 103.713 14.688C104.337 14.88 104.913 15.156 105.441 15.516C105.993 15.876 106.437 16.32 106.773 16.848V11.52C106.197 11.112 105.477 10.776 104.613 10.512C103.749 10.224 102.693 10.08 101.445 10.08C99.6211 10.08 97.9771 10.44 96.5131 11.16C95.0731 11.88 93.9331 12.888 93.0931 14.184C92.2771 15.456 91.8691 16.968 91.8691 18.72C91.8691 20.448 92.2771 21.96 93.0931 23.256C93.9331 24.552 95.0731 25.56 96.5131 26.28C97.9771 27 99.6211 27.36 101.445 27.36C102.693 27.36 103.749 27.228 104.613 26.964C105.477 26.676 106.197 26.304 106.773 25.848V20.556C106.437 21.084 106.005 21.528 105.477 21.888C104.973 22.248 104.409 22.536 103.785 22.752C103.185 22.944 102.549 23.04 101.877 23.04C101.085 23.04 100.341 22.86 99.6451 22.5C98.9731 22.14 98.4451 21.648 98.0611 21.024C97.6771 20.376 97.4851 19.608 97.4851 18.72ZM127.658 10.44H122.078L116.786 23.688L119.594 23.724L114.23 10.44H108.254L115.418 25.668L111.386 34.92H116.858L127.658 10.44Z" fill="#3E3FD8"/>
</svg>
